<svg data-v-0dd9719b="" version="1.0" xmlns="http://www.w3.org/2000/svg" xmlns:xlink="http://www.w3.org/1999/xlink" width="100%" height="100%" viewBox="0 0 340.000000 250.000000" preserveAspectRatio="xMidYMid meet" color-interpolation-filters="sRGB" style="margin: auto;"> <rect data-v-0dd9719b="" x="0" y="0" width="100%" height="100%" fill="#ffffff" fill-opacity="1" class="background"></rect> <rect data-v-0dd9719b="" x="0" y="0" width="100%" height="100%" fill="url(#watermark)" fill-opacity="1" class="watermarklayer"></rect> <g data-v-0dd9719b="" fill="#333333" class="icon-text-wrapper icon-svg-group iconsvg" transform="translate(47.665000915527344,90.36276626586914)"><g class="iconsvg-imagesvg" transform="translate(0,0)"><g><rect fill="#333333" fill-opacity="0" stroke-width="2" x="0" y="0" width="60" height="69.27446543204175" class="image-rect"></rect> <svg filter="url(#colors9994709016)" x="0" y="0" width="60" height="69.27446543204175" filtersec="colorsf523522397" class="image-svg-svg primary" style="overflow: visible;"><svg xmlns="http://www.w3.org/2000/svg" viewBox="0 0 457 527.6400146484375"><title>资源 1</title><path d="M65.28 207.3L359 376.9l32.65-18.85v-37.71L97.93 150.75l-32.65 18.84zm163.2 245l65.27-37.68L0 245V131.91L228.48 0 457 131.91v75.38L228.48 75.37l-65.28 37.69L457 282.65v113.08L228.48 527.64 0 395.73v-75.37z" fill="#333"></path></svg></svg> <defs><filter id="colors9994709016"><feColorMatrix type="matrix" values="0 0 0 0 0.93359375  0 0 0 0 0.35546875  0 0 0 0 0.140625  0 0 0 1 0" class="icon-fecolormatrix"></feColorMatrix></filter> <filter id="colorsf523522397"><feColorMatrix type="matrix" values="0 0 0 0 0.99609375  0 0 0 0 0.99609375  0 0 0 0 0.99609375  0 0 0 1 0" class="icon-fecolormatrix"></feColorMatrix></filter> <filter id="colorsb8543496318"><feColorMatrix type="matrix" values="0 0 0 0 0  0 0 0 0 0  0 0 0 0 0  0 0 0 1 0" class="icon-fecolormatrix"></feColorMatrix></filter></defs></g></g> <g transform="translate(67,23.70223331451416)"><g data-gra="path-name" fill-rule="" class="tp-name iconsvg-namesvg"><g transform="scale(1)"><g><path d="M9.68 0.27Q7.35 0.27 5.28-0.35 3.21-0.97 1.91-2.03L1.91-2.03Q1.21-2.54 1.21-3.48L1.21-3.48Q1.21-4.11 1.59-4.58 1.97-5.05 2.48-5.05L2.48-5.05Q3.02-5.05 3.72-4.63L3.72-4.63Q5.02-3.69 6.44-3.27 7.86-2.84 9.59-2.84L9.59-2.84Q11.8-2.84 12.98-3.61 14.16-4.39 14.16-5.87L14.16-5.87Q14.16-7.02 13.05-7.64 11.95-8.26 9.38-8.83L9.38-8.83Q6.71-9.41 5.05-10.16 3.39-10.92 2.54-12.1 1.69-13.28 1.69-15.09L1.69-15.09Q1.69-16.97 2.75-18.45 3.81-19.93 5.7-20.76 7.59-21.6 9.95-21.6L9.95-21.6Q14.28-21.6 17-19.3L17-19.3Q17.39-18.96 17.56-18.65 17.72-18.33 17.72-17.85L17.72-17.85Q17.72-17.21 17.35-16.74 16.97-16.27 16.45-16.27L16.45-16.27Q16.15-16.27 15.89-16.36 15.64-16.45 15.21-16.7L15.21-16.7Q13.97-17.6 12.81-18.04 11.65-18.48 9.95-18.48L9.95-18.48Q7.89-18.48 6.7-17.65 5.5-16.82 5.5-15.34L5.5-15.34Q5.5-14.1 6.56-13.43 7.62-12.76 10.16-12.19L10.16-12.19Q12.85-11.58 14.53-10.84 16.21-10.1 17.1-8.95 18-7.8 18-6.08L18-6.08Q18-4.2 16.95-2.77 15.91-1.33 14.02-0.53 12.13 0.27 9.68 0.27L9.68 0.27ZM30.4 0.27Q26.01 0.27 23.74-2 21.48-4.26 21.48-8.62L21.48-8.62 21.48-19.54Q21.48-20.42 21.99-20.95 22.5-21.48 23.38-21.48L23.38-21.48Q24.26-21.48 24.77-20.95 25.29-20.42 25.29-19.54L25.29-19.54 25.29-8.41Q25.29-5.66 26.59-4.25 27.89-2.84 30.4-2.84L30.4-2.84Q32.88-2.84 34.18-4.26 35.48-5.69 35.48-8.41L35.48-8.41 35.48-19.54Q35.48-20.42 35.99-20.95 36.51-21.48 37.39-21.48L37.39-21.48Q38.26-21.48 38.78-20.95 39.29-20.42 39.29-19.54L39.29-19.54 39.29-8.62Q39.29-4.3 37.02-2.01 34.75 0.27 30.4 0.27L30.4 0.27ZM59.92-21.48Q60.77-21.48 61.27-20.95 61.76-20.42 61.76-19.54L61.76-19.54 61.76-1.78Q61.76-0.91 61.25-0.36 60.74 0.18 59.92 0.18L59.92 0.18Q58.95 0.18 58.44-0.51L58.44-0.51 47.4-14.88 47.4-1.78Q47.4-0.91 46.91-0.36 46.43 0.18 45.58 0.18L45.58 0.18Q44.74 0.18 44.25-0.36 43.77-0.91 43.77-1.78L43.77-1.78 43.77-19.54Q43.77-20.42 44.28-20.95 44.8-21.48 45.64-21.48L45.64-21.48Q46.58-21.48 47.09-20.78L47.09-20.78 58.1-6.47 58.1-19.54Q58.1-20.42 58.6-20.95 59.1-21.48 59.92-21.48L59.92-21.48ZM82.51-21.48Q83.36-21.48 83.86-20.95 84.36-20.42 84.36-19.54L84.36-19.54 84.36-1.78Q84.36-0.91 83.84-0.36 83.33 0.18 82.51 0.18L82.51 0.18Q81.55 0.18 81.03-0.51L81.03-0.51 69.99-14.88 69.99-1.78Q69.99-0.91 69.51-0.36 69.02 0.18 68.18 0.18L68.18 0.18Q67.33 0.18 66.85-0.36 66.36-0.91 66.36-1.78L66.36-1.78 66.36-19.54Q66.36-20.42 66.88-20.95 67.39-21.48 68.24-21.48L68.24-21.48Q69.17-21.48 69.69-20.78L69.69-20.78 80.7-6.47 80.7-19.54Q80.7-20.42 81.2-20.95 81.7-21.48 82.51-21.48L82.51-21.48ZM102.27-20.81Q102.81-21.48 103.57-21.48L103.57-21.48Q104.26-21.48 104.81-20.95 105.35-20.42 105.35-19.69L105.35-19.69Q105.35-19.09 104.9-18.54L104.9-18.54 98.03-10.16 98.03-1.78Q98.03-0.85 97.49-0.33 96.94 0.18 96.09 0.18L96.09 0.18Q95.22 0.18 94.67-0.33 94.13-0.85 94.13-1.78L94.13-1.78 94.13-10.16 87.26-18.54Q86.81-19.09 86.81-19.69L86.81-19.69Q86.81-20.42 87.35-20.95 87.9-21.48 88.59-21.48L88.59-21.48Q89.35-21.48 89.89-20.81L89.89-20.81 96.09-13.13 102.27-20.81ZM114.52 0.27Q112.19 0.27 110.11-0.35 108.04-0.97 106.74-2.03L106.74-2.03Q106.05-2.54 106.05-3.48L106.05-3.48Q106.05-4.11 106.42-4.58 106.8-5.05 107.32-5.05L107.32-5.05Q107.86-5.05 108.56-4.63L108.56-4.63Q109.86-3.69 111.28-3.27 112.7-2.84 114.42-2.84L114.42-2.84Q116.63-2.84 117.81-3.61 118.99-4.39 118.99-5.87L118.99-5.87Q118.99-7.02 117.89-7.64 116.78-8.26 114.21-8.83L114.21-8.83Q111.55-9.41 109.89-10.16 108.22-10.92 107.38-12.1 106.53-13.28 106.53-15.09L106.53-15.09Q106.53-16.97 107.59-18.45 108.65-19.93 110.54-20.76 112.43-21.6 114.79-21.6L114.79-21.6Q119.11-21.6 121.83-19.3L121.83-19.3Q122.23-18.96 122.39-18.65 122.56-18.33 122.56-17.85L122.56-17.85Q122.56-17.21 122.18-16.74 121.8-16.27 121.29-16.27L121.29-16.27Q120.99-16.27 120.73-16.36 120.47-16.45 120.05-16.7L120.05-16.7Q118.81-17.6 117.65-18.04 116.48-18.48 114.79-18.48L114.79-18.48Q112.73-18.48 111.54-17.65 110.34-16.82 110.34-15.34L110.34-15.34Q110.34-14.1 111.4-13.43 112.46-12.76 115-12.19L115-12.19Q117.69-11.58 119.37-10.84 121.05-10.1 121.94-8.95 122.83-7.8 122.83-6.08L122.83-6.08Q122.83-4.2 121.79-2.77 120.75-1.33 118.86-0.53 116.97 0.27 114.52 0.27L114.52 0.27ZM132.97 0.15Q132.06 0.15 131.53-0.38 131-0.91 131-1.78L131-1.78 131-18.12 125.49-18.12Q123.68-18.12 123.68-19.72L123.68-19.72Q123.68-21.32 125.49-21.32L125.49-21.32 140.41-21.32Q142.22-21.32 142.22-19.72L142.22-19.72Q142.22-18.12 140.41-18.12L140.41-18.12 134.9-18.12 134.9-1.78Q134.9-0.91 134.37-0.38 133.84 0.15 132.97 0.15L132.97 0.15ZM146.4 0Q145.52 0 145.02-0.48 144.52-0.97 144.52-1.85L144.52-1.85 144.52-19.48Q144.52-20.36 145.02-20.84 145.52-21.32 146.4-21.32L146.4-21.32 157.31-21.32Q158.19-21.32 158.68-20.93 159.16-20.54 159.16-19.81L159.16-19.81Q159.16-19.06 158.68-18.65 158.19-18.24 157.31-18.24L157.31-18.24 148.33-18.24 148.33-12.37 156.71-12.37Q157.59-12.37 158.07-11.98 158.55-11.58 158.55-10.83L158.55-10.83Q158.55-10.1 158.07-9.71 157.59-9.32 156.71-9.32L156.71-9.32 148.33-9.32 148.33-3.09 157.31-3.09Q158.19-3.09 158.68-2.68 159.16-2.27 159.16-1.51L159.16-1.51Q159.16-0.79 158.68-0.39 158.19 0 157.31 0L157.31 0 146.4 0ZM164.27 0.18Q163.39 0.18 162.87-0.35 162.34-0.88 162.34-1.78L162.34-1.78 162.34-19.48Q162.34-20.36 162.83-20.84 163.33-21.32 164.21-21.32L164.21-21.32 171.65-21.32Q175.07-21.32 176.98-19.62 178.88-17.91 178.88-14.82L178.88-14.82Q178.88-11.74 176.98-10.01 175.07-8.29 171.65-8.29L171.65-8.29 166.24-8.29 166.24-1.78Q166.24-0.88 165.71-0.35 165.18 0.18 164.27 0.18L164.27 0.18ZM171.17-11.28Q175.19-11.28 175.19-14.79L175.19-14.79Q175.19-18.3 171.17-18.3L171.17-18.3 166.24-18.3 166.24-11.28 171.17-11.28Z" transform="translate(-1.2100000381469727, 21.600000381469727)"></path></g> <!----> <!----> <!----> <!----> <!----> <!----> <!----></g></g> <!----></g></g><defs v-gra="od"></defs></svg>